<svg width="430" height="593" viewBox="0 0 430 593" fill="none" xmlns="http://www.w3.org/2000/svg">
<path fill-rule="evenodd" clip-rule="evenodd" d="M227.799 2.1875C226.29 3.4245 223.055 5.9875 220.611 7.8825C218.167 9.7775 216.434 11.7595 216.759 12.2865C217.085 12.8145 216.886 12.9575 216.316 12.6055C214.068 11.2155 180.853 44.2805 172.789 55.9365C171.076 58.4115 169.397 60.6615 169.057 60.9365C167.415 62.2635 155.997 78.9725 154.023 82.9365C152.79 85.4115 151.012 88.5615 150.07 89.9365C145.14 97.1385 134.005 128.024 129.16 147.936C125.614 162.51 124.485 173.796 124.157 197.936C123.932 214.541 124.476 223.846 127.181 249.633C128.166 259.029 128.124 261.437 126.915 264.613C123.584 273.365 116.707 272.56 109.343 262.557C101.296 251.626 97.5562 242.187 93.6282 222.891C90.7202 208.607 90.0262 202.849 89.8092 191.193C89.6622 183.359 89.3182 176.961 89.0432 176.974C87.2202 177.065 69.9132 197.024 66.6282 202.822C66.1252 203.71 65.4172 204.661 65.0542 204.936C63.3832 206.203 51.9022 222.184 47.9482 228.746C45.5252 232.766 41.5722 239.291 39.1622 243.246C27.2652 262.774 11.3852 300.013 6.05624 320.884C0.310237 343.391 -1.66476 378.616 1.51324 401.936C3.88624 419.349 10.4452 442.439 18.0012 459.978C23.0882 471.786 28.3632 481.936 29.4132 481.936C29.9432 481.936 30.0972 482.215 29.7562 482.556C28.9142 483.398 34.6092 492.188 44.5792 505.436C77.9262 549.744 126.37 579.977 179.043 589.348C203.865 593.764 236.311 593.007 260.543 587.445C291.874 580.254 325.315 563.696 350.543 542.882C358.276 536.502 375.326 519.278 381.767 511.34C392.475 498.145 410.84 465.655 417.324 448.436C421.904 436.275 425.617 420.637 428.842 399.936C429.945 392.856 429.54 347.01 428.325 341.436C427.726 338.686 426.251 331.936 425.049 326.436C421.29 309.25 414.445 290.447 405.027 271.436C396.601 254.429 388.887 239.773 387.15 237.473C385.761 235.631 372.244 206.545 368.508 197.357C361.42 179.925 358.475 166.407 357.358 146.186C356.964 139.046 356.336 134.944 355.64 134.957C353.263 135.001 327.083 157.11 319.448 165.52C310.916 174.917 302.694 186.211 300.368 191.73C297.74 197.963 296.619 197.361 285.915 183.966C279.113 175.454 264.043 153.762 264.043 152.482C264.043 152.175 261.432 147.314 258.24 141.68C255.049 136.046 251.702 129.637 250.802 127.437C249.903 125.237 247.659 119.837 245.816 115.437C232.608 83.9085 227.733 50.8175 231.072 15.3605C231.638 9.3525 232.321 3.4235 232.591 2.1865C233.226 -0.7295 231.358 -0.7285 227.799 2.1875ZM197.495 101.687C199.34 111.949 204.632 127.054 210.763 139.554C231.549 181.938 250.115 208.59 288.043 250.49C314.235 279.426 316.52 281.784 317.246 280.641C317.668 279.978 318.023 277.636 318.036 275.436C318.048 273.236 319.178 266.059 320.545 259.486C325.54 235.481 329.871 222.936 333.166 222.936C334.198 222.936 335.043 223.369 335.043 223.898C335.043 225.592 346.859 249.87 356.476 267.936C361.599 277.561 367.681 289.036 369.992 293.436C375.839 304.573 383.587 328.255 385.532 340.936C386.418 346.711 387.57 353.323 388.093 355.629C389.379 361.303 389.293 381.91 387.935 393.766C386.784 403.82 382.373 422.256 378.819 431.872C370.908 453.28 354.031 481.303 340.238 495.936C330.768 505.982 329.414 505.902 331.694 495.436C334.77 481.32 331.778 450.776 325.766 434.936C319.278 417.84 306.413 395.59 298.619 387.986L294.057 383.533L287.8 384.909C284.359 385.666 280.195 386.319 278.548 386.361L275.552 386.436L275.493 366.436C275.425 343.749 274.541 338.278 267.959 319.816C261.611 302.011 252.645 287.203 239.985 273.613C236.489 269.86 233.052 265.966 232.347 264.96C231.642 263.954 227.798 260.626 223.804 257.566C219.811 254.506 214.968 250.65 213.043 248.996C208.223 244.856 206.643 244.988 207.482 249.461C209.426 259.824 207.32 279.622 202.753 293.917C201.607 297.503 200.621 300.661 200.561 300.936C200.214 302.537 195.042 311.533 190.5 318.436C184.601 327.403 173.765 340.449 162.241 352.46C143.124 372.387 126.646 392.271 118.342 405.436C109.712 419.119 103.853 433.922 99.3532 453.421C97.2972 462.326 96.9662 485.838 98.7632 495.374C100.678 505.541 99.3812 505.903 91.4502 497.419C77.1002 482.068 60.9132 456.727 53.7752 438.436C49.0622 426.36 46.7632 418.269 43.5482 402.436C41.3332 391.528 41.1522 388.698 41.5642 371.342C42.0502 350.865 43.1502 343.215 48.1422 325.581C53.4052 306.994 65.8752 278.936 68.8742 278.936C69.8362 278.936 71.5632 280.852 72.9402 283.448C77.4172 291.888 91.9322 304.333 102.043 308.4C107.641 310.652 124.281 311.577 132.283 310.081C141.313 308.394 148.416 304.344 155.474 296.861C162.564 289.347 166.724 281.521 168.102 273.111C169.677 263.497 169.186 245.859 166.964 232.208C165.198 221.355 164.943 216.206 165.269 197.936C165.634 177.482 165.835 175.616 169.402 159.581C175.085 134.036 177.927 126.168 188.326 107.187C194.013 96.8075 196.364 95.3965 197.495 101.687ZM230.39 338.686C236.866 362.215 235.114 388.706 225.4 414.098C222.898 420.64 221.121 426.698 221.453 427.561C221.984 428.946 225.311 429.093 249.742 428.805L277.429 428.48L280.214 433.221C281.746 435.828 282.976 438.193 282.947 438.475C282.918 438.756 284.615 444.038 286.719 450.212C290.408 461.042 290.543 461.911 290.542 474.936C290.54 491.076 288.704 499.641 282.74 511.333C275.189 526.136 262.58 538.125 246.986 545.325C237.369 549.766 229.558 551.165 213.543 551.315C201.69 551.426 199.793 551.184 192.043 548.567C180.778 544.763 175.84 542.175 168.043 535.99C156.865 527.124 149.195 516.591 142.878 501.436L139.543 493.436L139.581 476.436C139.623 457.227 140.015 455.464 148.043 438.316C155.508 422.371 165.949 408.441 186.926 386.436C203.171 369.395 214.682 355.79 221.409 345.68C227.151 337.051 229.448 335.262 230.39 338.686Z" fill="#EF4444"/>
</svg>
